{"title":"Humpty Sharma Ki Dulhania (2014)  1CD DVDScr Rip Xvid Mp3 By CHa","uid":10531335,"size":731314696,"categoryP":"video","categoryS":"movies","magnet":"?xt=urn:btih:71cd220fe2ce0538ebaab26ff0530a2aea83aa1b&amp;dn=Humpty+Sharma+Ki+Dulhania+%282014%29++1CD+DVDScr+Rip+Xvid+Mp3+By+CHa&amp;tr=udp%3A%2F%2Ftracker.openbittorrent.com%3A80&amp;tr=udp%3A%2F%2Fopen.demonii.com%3A1337&amp;tr=udp%3A%2F%2Ftracker.coppersurfer.tk%3A6969&amp;tr=udp%3A%2F%2Fexodus.desync.com%3A6969","seeders":1,"leechers":0,"uploader":"chaudh","files":1,"time":1405111071,"description":"\n[size=5][b][color=red]Humpty Sharma Ki Dulhania (2014)[/color][/b][/size]\n [b][size=5][color=lime] 1CD DVDScr Rip Xvid Mp3[/color][/size][/b]\n [b][size=6][color=fuchsia]CHauDhaRy[/color][/size][/b]\n\n[img=&quot;Humpty Sharma Ki Dulhania&quot;]http://datastore01.rediff.com/h1500-w1500/thumb/69586A645B6D2A2E3131/hf5e5s2zsn9owe6e.D.0.Humpty-Sharma-Ki-Dulhania-Poster.jpg[/img]\n\n[size=4][color=lime]***[/color][/size] [size=4][color=red]General[/color][/size] [size=4][color=lime]***[/color][/size]\n[size=3][color=fuchsia]Humpty Sharma Ki Dulhania (2014)1CD DVDScr Rip Xvid Mp3 By CHauDHaRY[/color][/size]\n\n[color=aqua]Exclusive.avi\nFormat : AVI\nFormat/Info : Audio Video Interleave\nFile size : 697 MiB\nDuration : 2h 11mn\nOverall bit rate mode : Variable\nOverall bit rate : 743 Kbps\n\nVideo\nID : 0\nFormat : MPEG-4 Visual\nFormat profile : Advanced Simple@L5\nFormat settings, BVOP : 2\nFormat settings, QPel : No\nFormat settings, GMC : No warppoints\nFormat settings, Matrix : Default (H.263)\nCodec ID : XVID\nCodec ID/Hint : XviD\nDuration : 2h 11mn\nBit rate : 651 Kbps\nWidth : 640 pixels\nHeight : 272 pixels\nDisplay aspect ratio : 2.35:1\nFrame rate : 23.976 fps\nColor space : YUV\nChroma subsampling : 4:2:0\nBit depth : 8 bits\nScan type : Progressive\nCompression mode : Lossy\nBits/(Pixel*Frame) : 0.156\nStream size : 612 MiB (88%)\nWriting library : XviD 1.2.1 (UTC 2008-12-04)\n\nAudio\nID : 1\nFormat : MPEG Audio\nFormat version : Version 1\nFormat profile : Layer 3\nMode : Joint stereo\nMode extension : MS Stereo\nCodec ID : 55\nCodec ID/Hint : MP3\nDuration : 1h 53mn\nSource duration : 2h 11mn\nBit rate mode : Variable\nBit rate : 80.0 Kbps\nChannel(s) : 2 channels\nSampling rate : 32.0 KHz\nCompression mode : Lossy\nStream size : 76.1 MiB (11%)\nAlignment : Aligned on interleaves\nInterleave, duration : 36 ms (0.86 video frame)\nWriting library : LAME3.99r\nEncoding settings : -m j -V 4 -q 2 -lowpass 13.5 --abr 80[/color]\n\n[size=5][color=red]~~~~Screent Shots~~~~[/color][/size]\n\n[img=1]http://i.imgur.com/wBFeDKo.png[/img]\n[img=2]http://i.imgur.com/2ZYT41d.png[/img]\n[img=3]http://i.imgur.com/0iTNtwW.png[/img]\n[img=4]http://i.imgur.com/0iTNtwW.png[/img]\n[img=5]http://i.imgur.com/gqkLp0i.png[/img]\n[img=6]http://i.imgur.com/q3N1JR4.png[/img]\n[img=7]http://i.imgur.com/plDsUFj.png[/img]\n[img=8]http://i.imgur.com/J2isuAZ.png[/img]\n[img=9]http://i.imgur.com/nunk6CS.png[/img]\n[img=10]http://i.imgur.com/DRhuzWr.png[/img]\n[img=11]http://i.imgur.com/zvnLZ3c.png[/img]\n[img=12]http://i.imgur.com/wxeY5uU.png[/img]\n[img=13]http://i.imgur.com/qrJIu2x.png[/img]","torrent":{"xt":"urn:btih:71cd220fe2ce0538ebaab26ff0530a2aea83aa1b","amp;dn":"Humpty+Sharma+Ki+Dulhania+%282014%29++1CD+DVDScr+Rip+Xvid+Mp3+By+CHa","amp;tr":["udp%3A%2F%2Ftracker.openbittorrent.com%3A80","udp%3A%2F%2Fopen.demonii.com%3A1337","udp%3A%2F%2Ftracker.coppersurfer.tk%3A6969","udp%3A%2F%2Fexodus.desync.com%3A6969"],"infoHash":"71cd220fe2ce0538ebaab26ff0530a2aea83aa1b","infoHashBuffer":{"type":"Buffer","data":[113,205,34,15,226,206,5,56,235,170,178,111,240,83,10,42,234,131,170,27]},"announce":[],"urlList":[]}}